<svg width="16" height="11" viewBox="0 0 16 11" fill="none" xmlns="http://www.w3.org/2000/svg">
<path d="M9.31224 9.19224L9.31229 9.19218L14.7572 3.68881L14.7572 3.68886L14.7632 3.68258C15.029 3.40445 15.1752 3.03304 15.1718 2.64855C15.1685 2.26406 15.016 1.89522 14.7454 1.62174C14.4747 1.34809 14.1073 1.1919 13.7222 1.18852C13.337 1.18513 12.9669 1.33485 12.6915 1.60376L12.6914 1.60371L12.6853 1.60989L8.27637 6.06621L3.87017 1.61266C3.7362 1.47337 3.57603 1.36189 3.3987 1.2849C3.21989 1.20726 3.02738 1.16632 2.83243 1.16461C2.63749 1.16289 2.44428 1.20045 2.26414 1.27494C2.08401 1.34943 1.92072 1.45929 1.78365 1.59783C1.64659 1.73636 1.53849 1.9008 1.46538 2.08141C1.39228 2.26201 1.35556 2.45533 1.35723 2.65015C1.35891 2.84496 1.39895 3.03763 1.47515 3.21694C1.55074 3.39479 1.66048 3.55613 1.79831 3.69157L7.24044 9.19218L7.2405 9.19224C7.51433 9.46894 7.88683 9.62536 8.27637 9.62536C8.66591 9.62536 9.0384 9.46894 9.31224 9.19224Z" fill="#06A46B" stroke="#034611"/>
</svg>
